<svg width="32" height="32" viewBox="0 0 32 32" fill="none" xmlns="http://www.w3.org/2000/svg">
  <rect width="32" height="32" fill="#003399"/>
  <path d="M16 4C9.37258 4 4 9.37258 4 16C4 22.6274 9.37258 28 16 28C22.6274 28 28 22.6274 28 16C28 9.37258 22.6274 4 16 4ZM16 6.5C21.2467 6.5 25.5 10.7533 25.5 16C25.5 17.6534 25.0766 19.208 24.3329 20.5627L17.5 16.6186V9H14.5V16.6186L7.66714 20.5627C6.92341 19.208 6.5 17.6534 6.5 16C6.5 10.7533 10.7533 6.5 16 6.5ZM16 25.5C12.9818 25.5 10.2619 24.0954 8.48395 21.9057L16 17.5654L23.5161 21.9057C21.7381 24.0954 19.0182 25.5 16 25.5Z" fill="#FFD700"/>
</svg>